<svg width="37" height="37" viewBox="0 0 37 37" fill="none" xmlns="http://www.w3.org/2000/svg">
<path d="M3.5 19.4998C3.5 18.2112 4.54467 17.1665 5.83333 17.1665H22.1667C23.4554 17.1665 24.5 18.2112 24.5 19.4998V32.3332C24.5 33.6219 23.4554 34.6665 22.1667 34.6665H5.83333C4.54467 34.6665 3.5 33.6219 3.5 32.3332V19.4998Z" stroke="#3B4045" stroke-width="1.5" stroke-linecap="round" stroke-linejoin="round"/>
<path d="M9.3335 20.6666V15.9999C9.3335 13.4226 11.4228 11.3333 14.0002 11.3333C16.5774 11.3333 18.6668 13.4226 18.6668 15.9999V20.3035" stroke="#3B4045" stroke-width="1.5" stroke-linecap="round" stroke-linejoin="round"/>
<circle cx="26.3723" cy="10.789" r="9.19163" fill="#DA2127" stroke="white"/>
<path d="M23.8782 16C23.4022 16 23.1642 15.7807 23.1642 15.342C23.1642 15.1087 23.2902 14.8567 23.5422 14.586L26.5242 11.394C26.9815 10.9087 27.3082 10.4653 27.5042 10.064C27.7095 9.65333 27.8122 9.24267 27.8122 8.832C27.8122 7.768 27.1868 7.236 25.9362 7.236C25.5628 7.236 25.1988 7.292 24.8442 7.404C24.4988 7.516 24.1582 7.698 23.8222 7.95C23.6542 8.07133 23.4955 8.11333 23.3462 8.076C23.2062 8.02933 23.0942 7.936 23.0102 7.796C22.9355 7.656 22.9075 7.50667 22.9262 7.348C22.9542 7.18 23.0522 7.03533 23.2202 6.914C23.6028 6.62467 24.0462 6.40067 24.5502 6.242C25.0542 6.08333 25.5675 6.004 26.0902 6.004C27.1075 6.004 27.8868 6.23733 28.4282 6.704C28.9788 7.17067 29.2542 7.838 29.2542 8.706C29.2542 9.294 29.1095 9.868 28.8202 10.428C28.5402 10.988 28.0968 11.5853 27.4902 12.22L25.0402 14.782H29.1142C29.5435 14.782 29.7582 14.9827 29.7582 15.384C29.7582 15.7947 29.5435 16 29.1142 16H23.8782Z" fill="white"/>
</svg>
