<svg width="50" height="49" viewBox="0 0 50 49" fill="none" xmlns="http://www.w3.org/2000/svg">
<g filter="url(#filter0_d_2504_14)">
<ellipse cx="25.0383" cy="20.5" rx="18.529" ry="18.5" fill="white"/>
<path d="M43.3173 20.5C43.3173 30.5788 35.1339 38.75 25.0383 38.75C14.9427 38.75 6.75928 30.5788 6.75928 20.5C6.75928 10.4212 14.9427 2.25 25.0383 2.25C35.1339 2.25 43.3173 10.4212 43.3173 20.5Z" stroke="#F3F8F0" stroke-width="0.5"/>
</g>
<path d="M36.5562 14.7363C35.8113 15.0625 35.0176 15.2787 34.19 15.3837C35.0414 14.8763 35.6911 14.0787 35.9966 13.1175C35.2029 13.59 34.3265 13.9238 33.3925 14.11C32.6389 13.3088 31.5647 12.8125 30.3929 12.8125C28.1193 12.8125 26.2889 14.655 26.2889 16.9138C26.2889 17.2387 26.3165 17.5512 26.3841 17.8487C22.97 17.6825 19.949 16.0488 17.9196 13.56C17.5653 14.1738 17.3575 14.8763 17.3575 15.6325C17.3575 17.0525 18.0899 18.3112 19.1816 19.04C18.5218 19.0275 17.8745 18.8363 17.3262 18.535C17.3262 18.5475 17.3262 18.5637 17.3262 18.58C17.3262 20.5725 18.7496 22.2275 20.6163 22.6087C20.282 22.7 19.9177 22.7437 19.5396 22.7437C19.2767 22.7437 19.0113 22.7288 18.7622 22.6737C19.2942 24.2975 20.8041 25.4913 22.5994 25.53C21.2022 26.6213 19.4282 27.2787 17.5077 27.2787C17.1709 27.2787 16.8479 27.2638 16.5249 27.2225C18.344 28.3938 20.4999 29.0625 22.8248 29.0625C30.3816 29.0625 34.5131 22.8125 34.5131 17.395C34.5131 17.2137 34.5068 17.0388 34.498 16.865C35.3131 16.2875 35.9979 15.5663 36.5562 14.7363Z" fill="#55AB29"/>
<defs>
<filter id="filter0_d_2504_14" x="0.509277" y="0" width="49.0581" height="49" filterUnits="userSpaceOnUse" color-interpolation-filters="sRGB">
<feFlood flood-opacity="0" result="BackgroundImageFix"/>
<feColorMatrix in="SourceAlpha" type="matrix" values="0 0 0 0 0 0 0 0 0 0 0 0 0 0 0 0 0 0 127 0" result="hardAlpha"/>
<feOffset dy="4"/>
<feGaussianBlur stdDeviation="3"/>
<feComposite in2="hardAlpha" operator="out"/>
<feColorMatrix type="matrix" values="0 0 0 0 0.27451 0 0 0 0 0.545098 0 0 0 0 0.141176 0 0 0 0.12 0"/>
<feBlend mode="normal" in2="BackgroundImageFix" result="effect1_dropShadow_2504_14"/>
<feBlend mode="normal" in="SourceGraphic" in2="effect1_dropShadow_2504_14" result="shape"/>
</filter>
</defs>
</svg>
