<svg width="50" height="49" viewBox="0 0 50 49" fill="none" xmlns="http://www.w3.org/2000/svg">
<g filter="url(#filter0_d_2504_19)">
<ellipse cx="25.1184" cy="20.5" rx="18.529" ry="18.5" fill="white"/>
<path d="M43.3974 20.5C43.3974 30.5788 35.2139 38.75 25.1184 38.75C15.0228 38.75 6.83936 30.5788 6.83936 20.5C6.83936 10.4212 15.0228 2.25 25.1184 2.25C35.2139 2.25 43.3974 10.4212 43.3974 20.5Z" stroke="#F3F8F0" stroke-width="0.5"/>
</g>
<path d="M37.037 19.4002V16.2002H35.4345V19.4002H32.2295V21.0002H35.4345V24.2002H37.037V21.0002H40.242V19.4002H37.037Z" fill="#55AB29"/>
<path d="M22.6146 19.4V22.6H27.1481C26.4862 24.4624 24.7043 25.8 22.6146 25.8C19.964 25.8 17.8071 23.6464 17.8071 21C17.8071 18.3536 19.964 16.2 22.6146 16.2C23.7636 16.2 24.8693 16.6112 25.7283 17.3584L27.834 14.9456C26.3917 13.6912 24.5392 13 22.6146 13C18.1965 13 14.6021 16.5888 14.6021 21C14.6021 25.4112 18.1965 29 22.6146 29C27.0327 29 30.6271 25.4112 30.6271 21V19.4H22.6146Z" fill="#55AB29"/>
<defs>
<filter id="filter0_d_2504_19" x="0.589355" y="0" width="49.0581" height="49" filterUnits="userSpaceOnUse" color-interpolation-filters="sRGB">
<feFlood flood-opacity="0" result="BackgroundImageFix"/>
<feColorMatrix in="SourceAlpha" type="matrix" values="0 0 0 0 0 0 0 0 0 0 0 0 0 0 0 0 0 0 127 0" result="hardAlpha"/>
<feOffset dy="4"/>
<feGaussianBlur stdDeviation="3"/>
<feComposite in2="hardAlpha" operator="out"/>
<feColorMatrix type="matrix" values="0 0 0 0 0.27451 0 0 0 0 0.545098 0 0 0 0 0.141176 0 0 0 0.12 0"/>
<feBlend mode="normal" in2="BackgroundImageFix" result="effect1_dropShadow_2504_19"/>
<feBlend mode="normal" in="SourceGraphic" in2="effect1_dropShadow_2504_19" result="shape"/>
</filter>
</defs>
</svg>
